<?xml version="1.0" standalone="no"?>
<!DOCTYPE svg PUBLIC "-//W3C//DTD SVG 20010904//EN"
 "http://www.w3.org/TR/2001/REC-SVG-20010904/DTD/svg10.dtd">
<svg version="1.0" xmlns="http://www.w3.org/2000/svg"
 width="200pt" height="200pt" viewBox="0 0 1024.000000 1024.000000"
 preserveAspectRatio="xMidYMid meet">

<g transform="translate(0.000000,1024.000000) scale(0.100000,-0.100000)"
fill="#000000" stroke="none">
<path d="M2196 9619 l-26 -31 0 -439 0 -439 28 -31 c38 -43 101 -45 140 -5
l27 26 3 446 3 445 -30 29 c-24 24 -38 30 -74 30 -38 0 -49 -5 -71 -31z m102
-461 c2 -372 1 -418 -14 -433 -12 -12 -19 -13 -30 -4 -12 9 -14 84 -14 429 0
229 3 420 7 424 4 4 16 6 28 4 20 -3 20 -9 23 -420z"/>
<path d="M2479 9431 l-29 -29 0 -342 c0 -382 1 -391 65 -409 46 -12 84 -1 109
33 20 26 21 42 24 324 4 345 0 395 -33 428 -36 36 -97 33 -136 -5z m91 -60
c11 -21 14 -589 4 -629 -5 -16 -13 -22 -28 -20 -21 3 -21 6 -24 323 -1 176 0
325 3 332 7 19 33 16 45 -6z"/>
<path d="M1919 9351 l-29 -29 0 -302 c0 -331 2 -346 59 -370 38 -15 75 -7 106
24 33 33 38 95 33 393 l-4 256 -32 28 c-44 40 -93 39 -133 0z m94 -101 c4 -30
7 -160 5 -288 -2 -191 -6 -234 -18 -242 -36 -22 -40 3 -40 285 0 151 3 281 6
290 4 9 14 15 23 13 11 -2 18 -20 24 -58z"/>
<path d="M2250 8630 c-19 -3 -49 -14 -66 -23 -31 -16 -94 -80 -94 -96 0 -5
-21 -11 -46 -15 -480 -65 -943 -408 -1167 -862 -92 -185 -149 -402 -163 -616
l-7 -108 -58 0 c-88 0 -99 -15 -99 -135 0 -112 17 -155 76 -195 l38 -25 683
-3 c376 -1 683 -3 683 -5 0 -1 -7 -51 -16 -112 -25 -177 -30 -619 -9 -784 38
-302 109 -525 239 -745 154 -261 405 -503 716 -691 213 -128 589 -294 687
-303 47 -4 54 -2 77 23 l26 28 58 -45 c31 -25 62 -56 69 -69 6 -13 32 -67 57
-119 69 -146 170 -253 308 -325 l67 -35 4 -448 c4 -493 8 -529 72 -752 180
-626 655 -1133 1264 -1350 215 -77 414 -110 668 -110 196 0 342 17 507 60 352
91 661 271 924 538 255 259 435 575 521 917 51 201 53 227 58 698 l5 447 28
15 c33 17 44 19 36 6 -3 -4 -13 -66 -22 -137 -20 -154 -23 -610 -5 -774 42
-376 204 -733 484 -1065 172 -204 222 -232 286 -160 40 46 185 266 251 382
108 192 208 449 244 628 91 462 -19 883 -345 1313 -106 141 -308 361 -338 369
-14 3 -37 1 -51 -4 -27 -10 -28 -9 -79 96 -28 58 -51 114 -51 124 0 39 -34
135 -79 222 -60 117 -162 221 -278 285 l-82 45 -1 68 c0 109 5 107 -262 107
l-223 0 3 75 4 75 217 0 c214 0 218 0 239 23 22 23 22 24 22 509 l0 485 45 86
c63 119 87 215 87 352 -1 283 -141 514 -392 644 l-75 39 3 414 2 413 39 22
c52 30 101 105 102 157 3 102 -5 129 -56 184 -48 53 -94 74 -166 74 -106 0
-189 -63 -215 -163 -28 -108 17 -214 111 -262 l30 -15 -3 -310 -3 -309 -77 80
c-269 278 -597 466 -977 561 -270 67 -666 67 -930 0 -298 -76 -557 -203 -786
-385 -110 -88 -277 -261 -359 -373 -55 -74 -74 -92 -125 -118 -153 -78 -264
-187 -336 -333 -52 -107 -71 -189 -73 -310 -1 -140 17 -218 80 -343 l54 -107
0 -455 c0 -250 0 -470 0 -487 0 -19 8 -41 20 -53 19 -19 33 -20 210 -20 l190
0 0 -52 c0 -29 3 -63 6 -75 l6 -23 -196 0 c-237 0 -236 1 -236 -108 l0 -68
-62 -32 c-35 -17 -70 -37 -79 -44 -13 -9 -30 -3 -91 35 l-74 47 -18 77 c-24
103 -85 275 -158 447 -73 175 -249 519 -324 634 -151 232 -386 468 -628 628
l-59 39 554 5 554 5 38 24 c21 12 47 40 57 62 40 78 34 235 -10 259 -10 5 -44
10 -74 10 l-56 0 0 53 c0 128 -35 323 -85 473 -78 236 -204 436 -389 619 -229
226 -505 375 -801 431 -87 16 -92 19 -132 64 -62 70 -139 97 -223 80z m138
-96 c15 -11 35 -37 45 -57 11 -21 28 -39 40 -42 12 -2 63 -12 112 -21 263 -49
535 -187 743 -379 57 -52 176 -196 231 -280 141 -214 224 -466 247 -750 l6
-80 -1517 -4 -1518 -4 7 99 c15 213 64 390 162 589 172 349 470 617 834 749
99 35 269 76 319 76 24 0 34 7 53 42 13 23 39 53 58 66 29 20 44 23 93 20 36
-3 67 -12 85 -24z m4197 -550 c254 -35 480 -118 770 -283 151 -86 405 -317
497 -451 18 -27 41 -52 51 -55 9 -4 17 -14 17 -23 0 -10 18 -41 39 -70 102
-136 229 -448 271 -668 32 -167 35 -257 32 -811 l-2 -513 -244 0 -244 0 5 -78
c4 -56 1 -94 -11 -134 -9 -31 -16 -61 -16 -67 0 -8 77 -11 255 -11 l255 0 0
-79 0 -78 65 -32 c214 -106 344 -288 382 -536 25 -169 -41 -361 -174 -505 -36
-38 -72 -70 -80 -70 -8 0 -27 -8 -41 -19 -15 -10 -55 -32 -89 -49 l-61 -31 -5
-468 c-5 -498 -6 -508 -62 -723 -132 -514 -495 -973 -967 -1224 -206 -110
-409 -177 -639 -210 -203 -30 -514 -17 -704 30 -492 120 -921 422 -1190 837
-112 172 -225 435 -266 615 -40 181 -42 203 -48 674 -3 256 -8 468 -11 471 -3
2 -37 21 -75 41 -155 80 -268 209 -325 368 -12 35 -27 74 -33 87 -7 13 -11 69
-10 130 1 123 29 228 87 324 73 121 134 174 286 249 36 17 68 36 72 42 4 6 8
44 8 84 l0 72 225 0 c188 0 225 2 225 14 0 8 -7 43 -16 78 -12 44 -15 83 -10
130 l6 68 -214 0 -215 0 -3 533 c-3 561 3 677 43 847 40 174 109 354 191 503
57 105 202 298 308 410 98 104 272 250 338 283 20 10 48 26 62 35 14 9 63 36
110 61 244 128 494 198 790 222 73 6 247 -4 365 -20z m-2614 -1148 c2 -3 2
-39 -1 -81 -5 -71 -7 -79 -38 -106 l-32 -29 -660 0 c-580 0 -660 -2 -660 -15
0 -8 4 -15 9 -15 22 0 242 -139 349 -220 309 -233 463 -424 666 -823 175 -347
256 -547 310 -772 l24 -99 -21 -15 c-89 -59 -173 -187 -196 -299 -12 -57 -13
-208 -2 -257 5 -24 0 -40 -24 -77 -16 -26 -36 -47 -44 -47 -22 -1 -277 103
-418 171 -588 282 -944 667 -1093 1180 -63 221 -75 321 -75 653 1 253 4 325
23 463 12 90 22 165 22 168 0 2 -315 4 -700 4 -602 0 -705 2 -730 15 -48 25
-60 52 -60 132 l0 73 1673 0 c921 0 1676 -2 1678 -4z m5054 -3058 c311 -329
501 -672 551 -993 23 -156 15 -390 -19 -535 -54 -226 -162 -474 -308 -705 -84
-135 -167 -255 -176 -255 -9 0 -76 70 -162 170 -185 214 -348 505 -417 745
-33 115 -55 269 -64 464 -14 271 -2 497 36 702 l16 86 61 17 c82 23 161 78
213 148 39 54 84 150 84 182 0 14 67 64 87 65 6 1 50 -41 98 -91z"/>
<path d="M5363 7168 c-80 -27 -158 -95 -198 -174 l-30 -59 0 -530 0 -530 27
-55 c36 -73 99 -137 167 -169 l56 -26 935 0 935 0 53 24 c79 36 156 124 182
209 20 65 21 88 18 567 l-3 500 -29 62 c-34 75 -95 134 -174 171 l-57 27 -910
2 c-899 2 -911 2 -972 -19z m466 -404 c20 -25 21 -39 21 -238 0 -150 -4 -218
-13 -236 -12 -24 -17 -25 -112 -28 -141 -4 -135 -16 -135 258 0 205 1 219 21
244 19 25 25 26 109 26 84 0 90 -1 109 -26z m1200 0 c20 -25 21 -39 21 -243 0
-274 6 -261 -130 -261 -136 0 -130 -13 -130 261 0 204 1 218 21 243 19 25 25
26 109 26 84 0 90 -1 109 -26z m-284 -801 c-10 -55 -29 -86 -81 -132 -77 -67
-191 -101 -344 -101 -157 0 -269 34 -349 106 -51 46 -89 119 -78 149 6 13 58
15 433 15 l426 0 -7 -37z"/>
<path d="M5515 4325 c-138 -38 -269 -148 -330 -276 -19 -41 -40 -100 -46 -132
-7 -39 -9 -229 -7 -560 l4 -502 28 -103 c47 -178 105 -299 203 -430 185 -248
454 -415 751 -467 110 -19 281 -19 397 0 504 82 908 499 980 1010 18 125 21
957 4 1051 -35 192 -190 359 -384 410 -74 20 -1527 18 -1600 -1z"/>
</g>
</svg>
